<svg class="wordmark_wordmark__gPyj1" style="--wordmark-height:32px" viewBox="0 0 87 30" fill="none" xmlns="http://www.w3.org/2000/svg">
  <path class="wordmark_fill__RZFeq" d="M41.434 21.251v-7.91h.137l5.704 7.91h1.796V9.627h-1.997v7.902h-.137l-5.704-7.902H39.43V21.25h2.005zM54.715 21.429c2.635 0 4.238-1.724 4.238-4.584 0-2.852-1.611-4.584-4.238-4.584-2.618 0-4.237 1.74-4.237 4.584 0 2.86 1.595 4.584 4.237 4.584zm0-1.676c-1.393 0-2.19-1.063-2.19-2.908 0-1.837.797-2.908 2.19-2.908 1.386 0 2.183 1.071 2.183 2.908 0 1.845-.789 2.908-2.183 2.908zM60.778 10.28v2.215h-1.393v1.595h1.393v4.809c0 1.708.806 2.393 2.828 2.393.386 0 .757-.04 1.047-.097v-1.563c-.242.024-.395.04-.677.04-.837 0-1.208-.386-1.208-1.256V14.09h1.885v-1.595h-1.885v-2.216h-1.99zM65.85 21.251h1.99v-8.813h-1.99v8.813zm.991-10.27c.66 0 1.192-.533 1.192-1.201 0-.669-.531-1.209-1.192-1.209-.652 0-1.192.54-1.192 1.209 0 .668.54 1.2 1.192 1.2zM73.299 21.429c2.634 0 4.237-1.724 4.237-4.584 0-2.852-1.611-4.584-4.237-4.584-2.619 0-4.238 1.74-4.238 4.584 0 2.86 1.595 4.584 4.238 4.584zm0-1.676c-1.394 0-2.192-1.063-2.192-2.908 0-1.837.798-2.908 2.192-2.908 1.385 0 2.183 1.071 2.183 2.908 0 1.845-.79 2.908-2.183 2.908zM78.725 21.251h1.998V16.12c0-1.297.75-2.119 1.941-2.119 1.217 0 1.78.677 1.78 2.022v5.228h1.999v-5.703c0-2.103-1.072-3.287-3.037-3.287-1.314 0-2.2.604-2.619 1.587h-.137v-1.41h-1.925v8.813z" fill="white"></path>
</svg>