<?xml version="1.0" encoding="utf-8"?>
<svg viewBox="0 0 87 30" style="--wordmark-height:32px" fill="none" xmlns="http://www.w3.org/2000/svg">
  <path class="wordmark_fill__RZFeq" d="M 9.458 24.318 L 9.458 11.837 L 9.674 11.837 L 18.675 24.318 L 21.508 24.318 L 21.508 5.977 L 18.358 5.977 L 18.358 18.445 L 18.142 18.445 L 9.141 5.977 L 6.296 5.977 L 6.296 24.316 L 9.46 24.316 L 9.458 24.318 Z M 30.414 24.599 C 34.573 24.599 37.102 21.878 37.102 17.366 C 37.102 12.866 34.559 10.133 30.414 10.133 C 26.283 10.133 23.728 12.878 23.728 17.366 C 23.728 21.878 26.245 24.599 30.414 24.599 Z M 30.414 21.954 C 28.217 21.954 26.959 20.277 26.959 17.366 C 26.959 14.468 28.217 12.777 30.414 12.777 C 32.601 12.777 33.859 14.468 33.859 17.366 C 33.859 20.277 32.614 21.954 30.414 21.954 Z M 39.981 7.007 L 39.981 10.502 L 37.784 10.502 L 37.784 13.019 L 39.981 13.019 L 39.981 20.606 C 39.981 23.302 41.253 24.383 44.444 24.383 C 45.053 24.383 45.638 24.319 46.095 24.229 L 46.095 21.764 C 45.714 21.801 45.473 21.827 45.027 21.827 C 43.707 21.827 43.122 21.218 43.122 19.845 L 43.122 13.019 L 46.095 13.019 L 46.095 10.502 L 43.122 10.502 L 43.122 7.005 L 39.981 7.005 L 39.981 7.007 Z M 47.985 24.318 L 51.124 24.318 L 51.124 10.412 L 47.985 10.412 L 47.985 24.318 Z M 49.548 8.113 C 50.59 8.113 51.429 7.272 51.429 6.218 C 51.429 5.163 50.591 4.311 49.548 4.311 C 48.519 4.311 47.667 5.163 47.667 6.218 C 47.667 7.272 48.519 8.112 49.548 8.112 L 49.548 8.113 Z M 59.738 24.599 C 63.895 24.599 66.424 21.878 66.424 17.366 C 66.424 12.866 63.882 10.133 59.738 10.133 C 55.605 10.133 53.051 12.878 53.051 17.366 C 53.051 21.878 55.567 24.599 59.738 24.599 Z M 59.738 21.954 C 57.539 21.954 56.279 20.277 56.279 17.366 C 56.279 14.468 57.539 12.777 59.738 12.777 C 61.923 12.777 63.183 14.468 63.183 17.366 C 63.183 20.277 61.937 21.954 59.738 21.954 Z M 68.3 24.318 L 71.453 24.318 L 71.453 16.222 C 71.453 14.176 72.636 12.878 74.515 12.878 C 76.435 12.878 77.324 13.946 77.324 16.069 L 77.324 24.318 L 80.478 24.318 L 80.478 15.32 C 80.478 12.001 78.786 10.133 75.686 10.133 C 73.613 10.133 72.214 11.085 71.554 12.637 L 71.338 12.637 L 71.338 10.412 L 68.3 10.412 L 68.3 24.318 Z" fill="white" style="transform-origin: 43.387px 14.455px;"/>
</svg>