<svg xmlns="http://www.w3.org/2000/svg" fill="none" viewBox="0 0 2086 2198">
  <path fill="#fff" d="M2068.66 501.66C1950.22 1058.16 1793.22 1607.94 1608.84 2146.13C1601.54 2167.46 1635.47 2176.79 1642.61 2155.45C1822.71 1614.24 1966.68 1063.96 2084.03 505.944C2086.13 495.864 2070.84 491.58 2068.66 501.66Z" />
  <path fill="#fff" d="M2083.95 499.056C2090.25 470.244 2075.13 450.504 2051.19 435.72C2007.17 408.588 1951.98 394.56 1903.77 376.416C1788.02 332.82 1671.42 291.24 1554.5 251.004C1321.65 170.784 1084.1 93.42 843.687 38.8199C821.259 33.6959 811.851 67.0439 834.111 73.4279C1043.52 133.32 1254.03 187.668 1462.1 252.516C1564.66 284.52 1667.06 317.448 1768.19 353.568C1818.76 371.628 1869.33 390.024 1919.73 408.756C1956.52 422.364 2069.58 444.96 2068.16 496.956C2068.07 505.776 2082.02 507.876 2083.95 499.056Z" />
  <path fill="#fff" d="M813.363 52.1758C736.671 151.464 704.079 286.62 665.439 403.716 618.147 546.852 570.855 689.988 523.563 833.208 428.979 1119.48 334.479 1405.84 240.231 1692.19 233.595 1712.27 265.263 1720.92 271.815 1700.93 363.963 1419.78 455.943 1138.55 547.755 857.232 592.779 719.22 637.887 581.292 682.911 443.28 703.911 379.02 724.155 314.424 747.003 250.752 770.355 185.568 800.007 123.492 825.459 59.3159 828.147 52.6799 817.731 46.4638 813.363 52.1758zM1613.13 2137.98C1547.19 2208.2 1425.64 2149.82 1351.3 2124.12 1246.64 2087.92 1142.39 2050.54 1038.57 2012.06 831.76 1935.46 629.572 1840.28 419.068 1775.02 402.856 1769.98 392.44 1794.34 407.476 1802.57 513.316 1860.28 626.464 1903.03 739.024 1945.87 852.424 1989.05 966.496 2030.54 1081.16 2070.36 1194.05 2109.59 1307.54 2148.82 1422.36 2181.83 1489.82 2201.23 1576.59 2212.32 1625.06 2149.82 1631.44 2141.59 1620.77 2129.83 1613.13 2137.98z" />
  <path fill="#fff" d="M259.047 1674.97C233.343 1716.8 284.836 1741.5 314.572 1759.06 344.812 1776.86 375.976 1793.08 407.392 1808.62 434.944 1822.14 461.403 1838.77 492.231 1841.71 504.999 1842.97 512.98 1823.82 503.068 1815.59 471.82 1789.88 427.72 1779.38 391.096 1762.16 369.424 1752 260.391 1712.6 271.227 1680.1 273.579 1672.79 262.911 1668.67 259.047 1674.97zM1639.08 170.532C1652.44 153.648 1674.19 126.684 1660.25 104.76 1648.66 86.6157 1614.64 76.6198 1596.16 68.0518 1574.57 58.0557 1552.56 49.0678 1530.39 40.4998 1492.84 26.0518 1436.14-6.12019 1394.89 1.69181 1359.53 8.32781 1353.65 48.6478 1338.78 75.1918 1332.9 85.6078 1344.66 97.5359 1355.16 91.5719 1373.31 81.2399 1371.63 67.4637 1382.8 51.7557 1406.82 17.9037 1455.46 45.5397 1487.21 56.7117 1518.96 67.8837 1550.63 79.5599 1581.37 93.4199 1594.81 99.4679 1609.26 105.264 1621.78 113.076 1645.13 127.608 1633.2 140.208 1624.3 161.88 1621.02 169.944 1633.79 177.336 1639.08 170.532z" />
  <path fill="#transparent" d="M1777.1 287.208C1765.34 310.308 1756.18 334.752 1749.88 359.952C1748.2 366.672 1746.6 373.812 1741.98 379.02C1734.59 387.336 1722.08 388.26 1710.99 387.504C1670.92 384.732 1633.46 367.68 1596.33 352.224C1449.41 290.904 1294.43 250.5 1147.1 190.188C1144.07 188.928 1140.88 187.584 1139.12 184.896C1136.18 180.444 1138.19 174.48 1140.21 169.608C1154.07 136.68 1169.02 104.256 1184.9 72.2517C1190.52 60.9117 1197.5 48.5637 1209.59 44.6997C1218.08 41.9277 1227.32 44.1117 1235.97 46.2117C1308.04 64.1037 1379.86 83.0878 1451.34 103.248C1504.1 118.116 1557.02 133.572 1606.41 157.26C1630.68 168.852 1654.12 182.46 1679.49 191.532C1708.47 201.864 1735.26 212.532 1763.24 224.88C1794.15 238.32 1792.3 257.472 1777.1 287.208Z" />
  <path fill="#fff" d="M1787.93 230.928C1779.11 263.52 1768.53 295.524 1755 326.52C1749.96 338.028 1744.67 356.844 1735.85 366.336C1715.61 388.008 1706.37 379.44 1685.79 372.3C1622.96 350.544 1560.21 328.284 1497.38 306.192C1434.54 284.184 1371.96 261.588 1309.3 239.076C1277.97 227.82 1246.64 216.48 1215.3 205.224C1202.96 200.772 1178.51 197.16 1168.35 188.256C1143.06 166.248 1161.12 151.464 1172.55 130.296C1187.67 102.24 1199.26 59.5677 1236.05 62.0037C1264.7 63.9357 1299.47 79.5598 1327.02 87.5398C1387.5 105.18 1447.65 124.248 1507.04 145.248C1566.51 166.332 1625.31 189.096 1683.52 213.372C1703.93 221.856 1757.86 235.296 1765.5 255.036C1775.33 280.404 1746.52 336.684 1736.61 358.272C1731.82 368.772 1747.28 378.012 1752.32 367.428C1770.96 328.116 1776.51 283.26 1794.9 244.788C1798.26 237.816 1797.09 228.744 1789.61 224.712C1720.06 186.492 1641.69 160.872 1567.1 134.412C1492.84 108.12 1417.91 83.8438 1342.23 62.0878C1307.54 52.0918 1271.33 39.5758 1235.72 33.6958C1216.06 30.4198 1201.61 30.3358 1188.09 46.8838C1167.68 71.9998 1155.16 109.128 1140.54 138.192C1132.14 154.992 1120.72 171.96 1131.39 190.356C1142.48 209.508 1175.57 215.052 1193.72 221.268C1230.42 233.868 1267.13 246.552 1303.76 259.152C1382.38 286.2 1460.92 313.668 1539.29 341.388C1581.12 356.172 1622.96 371.04 1664.79 385.824C1683.1 392.292 1709.9 407.58 1730.39 398.844C1749.8 390.612 1757.19 363.816 1764.58 346.428C1780.04 310.14 1791.71 272.76 1800.78 234.372C1802.72 226.14 1790.2 222.612 1787.93 230.928Z" />
  <path fill="#fff" d="M1726.61 388.764C1789.36 415.308 1849.34 446.808 1906.54 483.852 1950.89 512.496 1976.93 540.048 1966.18 596.16 1959.54 631.02 1945.77 665.04 1934.76 698.64 1886.46 845.892 1836.23 992.472 1784.15 1138.38 1680.66 1427.84 1567.85 1713.36 1451.09 1997.7 1440.26 2024.08 1483.09 2035.5 1493.85 2009.46 1621.69 1698.07 1737.28 1381.14 1845.3 1062.36 1871.43 985.164 1897.13 907.8 1922.16 830.268 1947.28 752.736 1983.82 670.416 1994.32 589.44 2001.46 534.42 1977.18 498.132 1932.08 469.068 1870.42 429.336 1801.46 399.348 1732.83 374.148 1724.43 371.124 1718.3 385.236 1726.61 388.764zM1141.38 178.68C1068.72 168.432 992.871 153.312 919.455 151.632 863.259 150.372 847.047 185.484 830.835 233.7 780.939 382.548 734.403 532.572 690.051 683.184 599.751 989.532 520.287 1299.07 451.071 1610.88 446.535 1631.46 478.203 1640.2 482.655 1619.62 543.723 1336.45 613.359 1055.22 692.067 776.508 731.043 638.496 772.203 500.988 815.463 364.236 826.887 328.116 838.479 291.996 850.155 255.96 862.503 218.076 871.323 174.48 919.371 174.396 992.199 174.144 1066.79 187.08 1139.53 191.364 1146.76 191.784 1148.61 179.688 1141.38 178.68z" />
  <path fill="#fff" d="M1462.18 2005.43C1124.84 1893.71 800.343 1758.05 480.723 1603.07C455.103 1590.64 432.423 1628.1 458.127 1641.71C772.539 1807.86 1112.49 1936.72 1456.05 2027.69C1470.49 2031.47 1476.21 2010.05 1462.18 2005.43Z" />
  <path fill="#fff" d="M1874.12 507.204C1770.38 1019.77 1503.26 1477.24 1332.15 1967.38C1324.17 1990.22 1360.71 2000.3 1368.44 1977.37C1534 1485.89 1791.12 1024.48 1883.94 509.892C1885.12 503.592 1875.46 500.736 1874.12 507.204Z" />
  <path fill="#fff" d="M1922.25 766.596C1619.85 652.188 1317.62 537.36 1012.28 431.1 995.475 425.22 988.671 451.428 1004.97 457.56 1307.37 571.128 1612.79 676.128 1918.13 781.548 1927.62 784.824 1931.49 770.124 1922.25 766.596zM1865.04 864.708C1683.77 792.384 1502.75 719.64 1320.47 650.004 1232.02 616.236 1143.57 582.468 1055.12 548.7 1008.33 530.808 961.455 513.168 914.331 496.2 871.995 480.996 828.819 461.676 783.543 459.072 771.615 458.4 770.439 473.436 778.083 479.316 811.935 505.356 855.7 518.796 895.264 534.084 941.968 552.144 988.924 569.7 1035.96 586.836 1127.36 620.184 1218.83 653.532 1310.22 686.88 1492.92 753.492 1676.8 816.912 1860.51 880.836 1870.92 884.532 1874.87 868.572 1865.04 864.708zM1795.16 981.216C1493.09 854.88 1186.41 732.66 869.475 648.156 855.279 644.376 849.819 665.292 863.511 669.912 1173.72 775.416 1486.96 871.764 1792.63 990.54 1798.43 992.892 1800.78 983.568 1795.16 981.216zM1759.29 1091.84C1588.68 1025.57 1417.32 960.719 1244.79 899.483 1159.86 869.327 1074.69 839.759 989.343 810.779 902.403 781.211 812.775 749.292 722.895 730.308 712.983 728.208 705.087 743.16 715.587 747.696 795.723 782.808 882.075 809.352 965.235 836.736 1053.35 865.8 1141.38 895.452 1229.08 925.692 1404.56 986.172 1579.61 1047.66 1753.74 1111.92 1766.34 1116.62 1771.55 1096.63 1759.29 1091.84zM1755.84 1230.36C1589.78 1174.42 1424.63 1115.87 1259.57 1056.98 1095.1 998.267 932.308 931.403 765.484 879.575 751.204 875.123 740.956 897.803 755.068 904.271 912.568 976.091 1079.31 1030.61 1242.77 1087.14 1410.77 1145.27 1580.2 1199.03 1750.13 1250.86 1763.4 1254.89 1768.7 1234.73 1755.84 1230.36z" />
  <path fill="#transparent" d="M668.464 942.24C782.032 991.632 863.847 1102.76 888.039 1224.23C912.231 1345.69 881.907 1474.97 815.631 1579.63C786.231 1626 749.44 1668.5 703.576 1698.66C590.764 1772.83 440.488 1761.41 313.48 1715.71C226.036 1684.3 141.447 1635.83 86.8472 1560.65C-1.3528 1439.18 6.12332 1266.4 75.4233 1133.26C122.211 1043.38 195.88 966.18 287.776 923.508C379.588 881.004 575.728 901.416 668.464 942.24Z" />
  <path fill="#fff" d="M660.147 956.436C824.031 1032.37 902.404 1215.07 869.056 1388.95C851.416 1480.85 806.979 1573 740.535 1639.52C676.191 1703.95 590.175 1731 500.295 1729.07C334.815 1725.54 128.512 1641.79 66.1835 1476.65C5.28351 1315.54 70.1315 1125.02 194.284 1012.38C263.668 949.464 337.84 924.18 430.072 923.172C509.2 922.248 588.495 935.016 663.843 959.124C682.659 965.172 694.924 936.444 677.368 927.12C605.464 888.984 516.339 878.4 436.035 876.888C348.591 875.208 273.831 895.704 203.439 948.624C53.2472 1061.6 -33.6086 1266.4 13.0114 1451.95C61.3114 1643.98 261.567 1749.56 446.031 1771.4C542.967 1782.91 645.532 1768.46 726.172 1710.17C805.972 1652.54 861.328 1561.66 890.98 1469C956.836 1263.46 881.824 1020.53 676.78 928.044C657.712 919.476 640.995 947.532 660.147 956.436Z" />
  <path fill="#fff" d="M267.447 1237.5C292.227 1313.69 310.875 1392.73 333.219 1469.76C339.855 1492.61 365.896 1496.81 382.78 1482.86C444.352 1431.88 513.652 1389.96 589.168 1363.42C624.028 1351.15 659.811 1342.16 696.184 1335.53C730.119 1329.4 771.783 1331.41 801.015 1311.5C813.699 1302.85 814.875 1284.37 801.015 1275.97C767.499 1255.56 722.475 1264.8 685.515 1270.76C642.339 1277.74 599.835 1290 559.011 1305.71C478.035 1336.96 404.368 1381.56 340.864 1440.86C357.412 1445.23 373.875 1449.6 390.423 1453.97C363.123 1378.28 331.624 1303.02 306.76 1226.58C298.696 1201.88 259.383 1212.47 267.447 1237.5Z" />
</svg>