<svg xmlns="http://www.w3.org/2000/svg" fill="none" viewBox="0 0 2088 2114"><path fill="#fff" d="M1027.92 321.131C684.865 322.727 387.59 542.891 260.414 858.731C184.898 1046.22 185.99 1246.73 265.118 1433.12C328.454 1582.39 430.849 1715.2 564.829 1807.6C847.321 2002.48 1228.43 1969.97 1497.23 1766.18C1778.55 1552.82 1888.08 1178.27 1771.83 844.787C1708.99 664.691 1581.4 515.087 1415.5 421.511C1253.46 330.035 1047.49 284.843 865.046 333.815C848.246 338.351 850.934 367.247 869.246 365.147C1029.27 346.583 1185.84 359.519 1334.1 426.467C1480.35 492.659 1605.84 601.943 1684.47 742.643C1848.1 1035.72 1802.32 1422.29 1566.78 1662.78C1341.66 1892.77 978.278 1974.92 683.942 1834.64C383.474 1691.51 178.094 1329.72 251.006 998.255C291.83 812.531 399.098 642.851 545.174 521.639C681.842 408.323 851.186 351.035 1028.01 349.523C1046.23 349.355 1046.23 321.047 1027.92 321.131Z"/><path fill="#fff" d="M1024.98 449.567C735.013 451.163 484.022 637.559 377.762 905.267C263.27 1193.72 383.557 1526.2 635.641 1700.33C871.765 1863.45 1190.96 1836.74 1416.42 1667.48C1653.22 1489.74 1748.64 1177.17 1653.47 896.111C1601.73 743.315 1495.47 615.887 1355.69 535.499C1219.11 456.959 1042.2 416.387 887.81 459.899C871.177 464.603 873.614 493.079 892.01 491.231C1025.99 477.875 1155.6 486.779 1279.75 542.891C1401.64 597.995 1506.39 688.799 1572.07 805.895C1710 1051.85 1670.52 1376.67 1471.44 1577.43C1283.62 1766.94 982.477 1833.63 738.541 1717.71C488.641 1598.94 316.946 1299.06 375.662 1023.03C440.93 716.351 709.981 481.151 1024.98 477.791C1043.21 477.791 1043.29 449.483 1024.98 449.567Z"/><path fill="#fff" d="M1021.62 597.407C792.217 599.087 594.23 746.423 511.49 959.027C423.29 1185.58 519.638 1445.89 717.374 1581.47C905.114 1710.15 1157.45 1685.63 1334.61 1550.05C1520.41 1407.84 1592.4 1157.35 1512.35 937.019C1469.09 817.823 1383.49 719.375 1272.36 658.307C1167.36 600.683 1030.53 569.519 913.513 605.219C897.049 610.259 899.149 637.895 917.713 636.551C1022.38 629.075 1121.41 633.779 1218.52 677.459C1311.34 719.291 1391.39 787.835 1442.46 876.455C1551.33 1065.46 1523.77 1318.04 1371.15 1474.95C1225.91 1624.22 991.634 1677.06 800.954 1587.6C606.998 1496.54 473.27 1264.2 517.874 1050.5C567.77 811.439 776.677 629.159 1021.54 625.715C1039.85 625.463 1039.85 597.239 1021.62 597.407Z"/><path fill="#fff" d="M999.11 1025.39C860.258 987.083 856.394 1250.76 1002.39 1249.25 1074.88 1248.49 1129.56 1200.44 1118.64 1125.43 1109.65 1063.52 1058.33 989.183 988.273 1023.2 966.937 1033.53 978.529 1065.12 999.781 1065.71 1036.83 1066.71 1055.39 1090.57 1063.03 1124.67 1073.2 1169.87 1046.65 1196.41 1002.3 1198.59 912.254 1202.96 914.185 1029.42 992.557 1048.91 1007.85 1052.69 1014.23 1029.59 999.11 1025.39zM1856.33 1176.08C1894.89 1179.7 1939.66 1190.36 1977.88 1182.8 1996.95 1179.02 1993.67 1152.82 1977.88 1147.36 1941.42 1134.76 1894.55 1139.63 1856.33 1137.95 1831.55 1136.86 1832.31 1173.82 1856.33 1176.08zM925.273 100.295C925.105 147.503 920.906 196.559 928.97 243.179 931.658 258.635 957.53 258.635 960.134 243.179 968.198 196.559 963.997 147.503 963.829 100.295 963.745 75.5147 925.357 75.4307 925.273 100.295zM18.1578 1270.92C54.6138 1268.65 91.07 1266.38 127.526 1264.11 152.222 1262.6 152.222 1223.71 127.526 1225.56 91.07 1228.25 54.6138 1231.02 18.1578 1233.71-5.53015 1235.47-5.86615 1272.43 18.1578 1270.92zM1031.45 1996.68C1027.75 2028.52 1023.47 2066.32 1033.05 2097.4 1040.61 2121.92 1074.71 2116.13 1076.56 2091.52 1078.91 2060.18 1073.37 2028.43 1075.72 1996.68 1077.9 1967.87 1034.64 1968.96 1031.45 1996.68z"/><path fill="#fff" d="M1660.95 392.363C1550.23 515.087 1439.19 637.475 1326.63 758.603C1214.15 879.647 1097.39 997.331 988.274 1121.4C972.398 1139.46 997.43 1165.16 1014.9 1148.03C1250.77 917.027 1466.23 663.095 1682.95 414.287C1695.89 399.335 1674.39 377.495 1660.95 392.363Z"/><path fill="#fff" d="M976.682 1109.89C967.526 1120.56 963.494 1134.33 955.094 1145.51 945.686 1158.02 956.522 1173.65 968.366 1178.18 978.698 1182.13 992.306 1181.54 1003.39 1181.96 1016.25 1182.47 1028.93 1181.79 1038.25 1171.88 1045.81 1163.9 1045.06 1153.07 1038.25 1144.92 1029.6 1134.5 1016.08 1133.75 1003.39 1133.41 992.054 1133.16 979.202 1131.9 968.366 1135.26 977.774 1142.4 987.097 1149.54 996.505 1156.68 997.849 1144.75 1004.15 1133.75 1004.65 1121.4 1005.33 1107.79 985.922 1099.14 976.682 1109.89zM1655.07 273.502C1654.65 295.93 1654.23 318.359 1653.72 340.871 1653.3 360.275 1650.87 379.175 1660.53 396.647 1665.06 404.879 1677.75 404.879 1682.37 396.647 1692.03 379.175 1689.59 360.359 1689.17 340.871 1688.75 318.443 1688.25 296.014 1687.83 273.502 1687.49 252.418 1655.49 252.418 1655.07 273.502z"/><path fill="#fff" d="M1675.06 294.418C1707.23 250.066 1740.91 206.806 1776.7 165.31C1810.05 126.586 1846.33 78.1185 1890.6 51.4065C1876.74 43.4265 1862.8 35.4467 1848.94 27.4667C1848.1 66.6947 1839.53 114.575 1847.34 153.047C1851.29 172.451 1861.2 188.158 1882.2 192.022C1908.07 196.726 1941.84 184.211 1967.13 179.339C2003.92 172.199 2042.56 167.915 2076.16 150.695C2098.5 139.271 2085.73 108.611 2064.31 106.931C2020.05 103.403 1972.42 119.11 1929.24 128.014C1926.13 128.686 1902.78 137.086 1905.05 137.422C1902.03 147.418 1901.44 143.555 1903.45 125.831C1903.54 120.371 1903.54 114.911 1903.62 109.451C1903.87 82.1508 1904.04 54.8508 1904.29 27.5508C1904.55 0.250757 1866.24 -10.4175 1852.72 13.6065C1824.33 64.0065 1777.79 106.93 1742.51 152.71C1710.51 194.206 1680.35 237.047 1651.71 280.895C1642.05 295.511 1665.06 308.194 1675.06 294.418Z"/><path fill="#fff" d="M2048.86 140.699C2003.75 181.775 1963.01 228.227 1921.43 272.831C1883.38 313.571 1835.25 353.723 1807.27 402.191C1797.36 419.327 1818.19 443.687 1836.09 431.003C1883.8 396.983 1921.01 343.139 1959.73 299.375C1999.47 254.519 2040.71 210.167 2076.75 162.203C2089.26 145.403 2063.05 127.847 2048.86 140.699Z"/><path fill="#fff" d="M1674.89 418.571C1721.85 430.079 1768.89 438.478 1817.35 439.402 1842.72 439.906 1842.05 402.527 1817.35 400.427 1771.24 396.563 1724.95 393.791 1679.09 387.659 1661.37 385.391 1657.92 414.455 1674.89 418.571zM1861.87 164.975C1804.92 232.091 1747.3 298.703 1692.53 367.583 1683.46 379.007 1699.17 395.303 1708.83 383.879 1765.78 316.595 1819.87 246.875 1874.73 177.827 1881.87 168.839 1869.52 155.903 1861.87 164.975z"/><path fill="#fff" d="M1729.83 368.423C1773.59 368.759 1817.44 370.019 1861.12 369.095 1871.37 368.927 1871.37 353.387 1861.12 353.135 1817.44 352.211 1773.59 353.471 1729.83 353.807 1720.42 353.807 1720.42 368.339 1729.83 368.423zM1788.21 295.006C1841.55 295.846 1895.39 298.87 1948.65 297.022 1960.07 296.602 1960.07 279.719 1948.65 279.299 1895.31 277.451 1841.55 280.39 1788.21 281.314 1779.39 281.398 1779.3 294.838 1788.21 295.006zM1861.12 237.299C1902.45 237.887 1943.77 238.475 1985.1 239.063 1997.11 239.231 1997.11 220.247 1985.1 220.499 1943.77 221.087 1902.45 221.675 1861.12 222.263 1851.46 222.431 1851.37 237.215 1861.12 237.299zM1796.35 105.755C1795.18 151.451 1790.39 198.827 1793.92 244.355 1794.76 255.779 1810.72 255.779 1811.64 244.355 1815.17 198.827 1810.38 151.451 1809.21 105.755 1808.95 97.5231 1796.52 97.5231 1796.35 105.755zM1752.67 191.519C1744.53 235.115 1737.81 282.491 1744.02 326.759 1745.37 336.167 1759.81 333.479 1760.15 324.575 1761.49 280.895 1759.14 238.727 1765.53 195.047 1766.7 186.815 1754.27 183.035 1752.67 191.519zM1694.04 266.279C1693.96 290.555 1693.87 314.915 1693.79 339.191 1693.79 348.011 1707.57 348.011 1707.48 339.191 1707.4 314.915 1707.31 290.555 1707.23 266.279 1707.31 257.711 1694.04 257.711 1694.04 266.279z"/></svg>