<svg xmlns="http://www.w3.org/2000/svg" fill="none" viewBox="0 0 1796 1627">
  <path fill="transparent" d="M1331.26 294.58C1308.16 214.108 1278.34 149.68 1238.27 76.1801C1225.09 51.9881 1208.45 26.2001 1181.74 19.1441C1160.83 13.6001 1138.99 21.0761 1118.66 28.5521C945.702 91.7201 772.746 154.804 599.874 217.972C513.186 249.64 403.482 295 322.254 362.032C275.13 400.924 257.574 482.404 260.094 538.096C273.534 832.768 412.89 1116.86 571.566 1365.58C604.326 1416.9 645.486 1471.76 705.63 1481.25C736.374 1486.12 767.454 1478.06 797.442 1469.74C987.786 1417.07 1174.6 1351.64 1356.13 1273.94C1413.83 1249.24 1472.89 1221.94 1513.96 1174.56C1577.3 1101.57 1585.53 994.72 1568.31 899.548C1551.09 804.46 1512.11 714.496 1491.95 619.996" />
  <path fill="#fff" d="M1340.59 291.976C1323.11 230.824 1300.35 171.352 1272.97 113.98C1251.8 69.4598 1228.36 5.95578 1171.24 0.663776C1143.69 -1.94022 1115.21 9.5678 1089.85 18.4718C1050.37 32.2478 1011.14 46.7798 971.742 60.9758C895.638 88.3598 819.534 115.744 743.514 143.128C612.054 190.42 472.614 231.076 355.434 309.532C309.15 340.528 274.038 373.288 254.634 426.628C234.642 481.9 236.574 539.44 242.79 596.896C273.114 879.892 402.558 1145.67 555.606 1381.96C584.922 1427.24 619.614 1473.6 671.022 1494.77C733.854 1520.56 803.91 1492.42 865.146 1474.7C1013.91 1431.69 1160.07 1380.28 1303.21 1321.31C1433.57 1267.55 1562.51 1210.18 1589.73 1057.05C1617.03 903.412 1544.12 761.116 1510.43 614.956C1504.89 590.764 1468.01 601.012 1473.31 625.204C1499.68 745.996 1557.64 862.84 1556.05 988.504C1555.37 1043.1 1543.03 1099.05 1510.69 1144.07C1474.73 1194.14 1417.78 1221.69 1362.85 1245.88C1241.38 1299.47 1116.31 1345.34 990.306 1386.83C929.49 1406.82 868.254 1425.89 806.598 1443.28C772.41 1452.94 735.534 1466.04 699.75 1456.89C668.082 1448.82 643.386 1424.97 623.226 1400.52C549.558 1310.98 493.278 1198.5 441.702 1095.27C384.75 981.112 337.374 861.496 308.646 736.924C285.798 637.888 254.13 499.708 312.93 407.14C342.75 360.268 403.314 330.784 451.278 305.92C506.046 277.444 563.334 254.764 621.126 233.344C762.414 180.928 903.702 128.68 1045.07 76.3478C1078.76 63.8318 1113.28 46.2758 1148.06 37.5398C1198.29 24.9398 1219.96 73.1558 1239.87 108.94C1273.55 169.336 1301.44 231.244 1321.6 297.436C1325.47 309.112 1344.11 304.072 1340.59 291.976Z" />
  <path fill="transparent" d="M1387.21 299.452C1314.8 281.14 1114.37 372.196 1000.81 400.924C945.03 415.036 886.23 428.14 842.382 465.52C803.49 498.7 780.39 549.688 781.23 600.76C782.07 651.832 806.766 702.064 846.75 733.984C891.774 769.936 951.834 781.276 1009.37 782.872C1135.04 786.316 1258.77 748.936 1373.35 697.108C1412.74 679.3 1453.06 658.3 1477.59 622.6C1504.72 583.12 1508 531.964 1503.38 484.336C1498.67 436.456 1486.24 387.904 1456.84 349.852C1427.44 311.8 1378.64 286.264 1331.26 294.58" />
  <path fill="#fff" d="M1389.22 292.228C1343.27 282.232 1293.13 292.816 1248.44 303.988C1181.83 320.536 1117.15 344.812 1051.71 365.224C985.77 385.804 911.682 393.196 852.882 431.668C796.77 468.46 759.978 533.056 760.65 600.76C762.246 773.128 945.198 816.556 1084.47 804.544C1172.08 796.984 1257.09 771.448 1337.98 738.016C1398.71 712.9 1475.66 681.652 1504.22 617.056C1557.22 497.188 1493.3 249.472 1326.73 278.368C1308.08 281.644 1312.36 312.556 1331.18 311.464C1475.74 302.644 1538.83 519.364 1454.74 617.98C1414.34 665.356 1339.58 688.036 1282.96 708.532C1218.87 731.716 1152.34 748.936 1084.47 755.992C1021.39 762.544 949.902 763.972 891.27 735.916C828.858 706.096 790.806 636.964 804.498 568.168C829.95 440.068 986.358 430.072 1088.08 394.792C1141 376.396 1193.17 355.816 1246.17 337.672C1287.67 323.392 1340.42 298.108 1385.11 306.844C1394.6 308.608 1398.71 294.328 1389.22 292.228Z" />
  <path fill="transparent" d="M935.286 537.256C914.118 556.912 906.895 588.076 909.415 616.888C911.095 636.292 916.974 655.78 929.154 670.984C944.442 690.136 968.971 700.972 993.415 701.56C1017.86 702.148 1042.13 693.16 1061.62 678.376C1069.85 672.076 1077.5 664.684 1082.45 655.612C1091.69 638.56 1090.69 617.812 1086.15 598.912C1078.93 568.84 1062.38 539.692 1035.67 524.068C1008.95 508.444 971.239 510.04 950.239 532.636" />
  <path fill="#fff" d="M927.726 529.696C889.254 570.94 885.558 646.792 926.382 688.456C966.954 729.952 1035.58 722.644 1076.99 686.356C1168.05 606.388 1017.44 423.52 939.318 526.168C931.422 536.5 946.458 549.688 956.622 543.472C987.954 524.152 1022.48 525.244 1048.1 554.56C1075.15 585.556 1087.41 637.048 1051.54 665.356C1023.57 687.448 982.158 694.504 951.498 672.916C910.506 644.188 911.01 579.172 942.762 544.732C952.002 534.736 937.134 519.7 927.726 529.696Z" />
  <path fill="transparent" d="M1009.96 558.592C1024.58 564.724 1033.99 580.012 1036.67 595.636C1039.36 611.26 1036.34 627.388 1031.97 642.676" />
  <path fill="#fff" d="M1006.77 564.136C1030.88 579.928 1025.5 615.88 1020.46 639.484C1017.27 654.52 1038.69 660.484 1043.56 645.868C1055.74 608.992 1052.63 567.244 1011.73 552.376C1004.59 549.772 1000.89 560.272 1006.77 564.136Z" />
  <path fill="transparent" d="M968.214 657.376C972.75 657.88 977.202 658.384 981.738 658.888L968.214 657.376Z" />
  <path fill="#fff" d="M968.214 670.396C970.734 670.732 973.253 671.068 975.689 671.404C978.881 671.824 981.822 671.404 985.014 670.816C994.926 668.884 997.697 652.336 987.953 648.136C984.089 646.456 980.645 645.364 976.445 645.028C973.673 644.776 970.902 644.524 968.214 644.272C961.41 643.684 954.858 650.74 955.11 657.376C955.53 665.188 960.906 669.472 968.214 670.396Z" />
  <path fill="transparent" d="M468.414 369.004C474.294 366.652 480.09 364.3 485.97 361.948L468.414 369.004Z" />
  <path fill="#fff" d="M472.026 382.024C475.302 381.268 478.662 380.68 481.938 379.756C486.138 378.58 489.33 376.228 492.942 373.876C498.654 370.012 501.342 363.292 498.57 356.74C495.714 350.104 489.246 347.584 482.358 348.76C478.074 349.516 474.294 350.104 470.346 352.204C467.406 353.8 464.55 355.648 461.61 357.328C448.17 365.224 457.158 385.384 472.026 382.024Z" />
  <path fill="transparent" d="M608.862 312.892C620.286 304.408 633.474 298.276 647.334 295L608.862 312.892Z" />
  <path fill="#fff" d="M617.093 326.836C623.141 322.3 629.609 318.268 636.497 315.16C639.353 313.9 642.209 312.976 645.149 311.884C649.853 310.12 653.045 307.6 656.825 304.408C664.385 298.108 660.269 284.164 650.945 282.232C640.697 280.048 633.053 282.484 623.561 286.432C615.497 289.876 607.937 293.908 600.713 299.032C593.573 304.072 590.213 313.144 594.917 321.124C598.949 327.928 610.037 332.044 617.093 326.836Z" />
  <path fill="transparent" d="M784.338 246.028C794.838 242.5 805.422 238.972 815.922 235.528L784.338 246.028Z" />
  <path fill="#fff" d="M788.454 260.728C800.298 256.78 811.638 252.664 822.894 247.288C829.026 244.348 831.042 235.948 828.522 230.152C825.666 223.6 819.198 220.828 812.31 222.172C801.306 224.356 790.974 227.632 780.306 231.244C772.494 233.848 767.37 241.744 769.638 250.06C771.738 257.704 780.558 263.332 788.454 260.728Z" />
  <path fill="transparent" d="M949.481 175.888C960.905 168.076 974.346 163.12 988.038 161.776L949.481 175.888Z" />
  <path fill="#fff" d="M956.958 188.74C967.878 181.012 978.966 178.24 991.398 173.788C1005.01 168.832 1001.98 151.024 988.122 149.428C972.33 147.664 955.194 154.972 942.006 163.12C925.542 173.2 941.502 199.66 956.958 188.74Z" />
  <path fill="transparent" d="M1100.43 119.692C1107.49 117.34 1114.46 114.988 1121.51 112.636L1100.43 119.692Z" />
  <path fill="#fff" d="M1104.13 133.132C1112.36 130.36 1120.34 127.924 1127.98 123.724C1133.53 120.7 1135.71 113.308 1133.27 107.68C1130.5 101.38 1124.62 99.2798 1118.15 100.204C1110.68 101.296 1103.87 103.816 1096.82 106.168C1089.93 108.436 1084.64 115.912 1087.07 123.304C1089.17 130.276 1096.65 135.652 1104.13 133.132Z" />
  <path fill="transparent" d="M1198.37 169.252C1202.99 172.864 1207.61 176.392 1212.23 180.004L1198.37 169.252Z" />
  <path fill="#fff" d="M1192.75 178.828C1198.46 182.356 1203.5 186.22 1210.22 187.228C1217.02 188.32 1221.47 182.44 1218.7 176.14C1216.01 169.924 1210.97 165.976 1206.1 161.356C1201.31 156.82 1193.67 157.156 1189.55 162.448C1185.61 167.824 1187.12 175.3 1192.75 178.828Z" />
  <path fill="transparent" d="M1247.68 253.168C1249.95 259.048 1252.3 264.928 1254.57 270.808L1247.68 253.168Z" />
  <path fill="#fff" d="M1233.15 257.2C1234.58 260.644 1235.92 264.004 1237.35 267.448C1239.37 272.32 1241.97 276.016 1245.33 280.048C1252.47 288.784 1268.26 281.644 1267.67 270.808C1267.42 266.692 1267.25 262.66 1265.83 258.796C1264.65 255.604 1263.47 252.412 1262.3 249.22C1259.53 241.828 1251.97 236.032 1243.73 238.72C1236.68 240.904 1229.96 249.388 1233.15 257.2Z" />
  <path fill="transparent" d="M1455.08 748.18C1455.25 758.344 1459.03 768.424 1465.49 776.32L1455.08 748.18Z" />
  <path fill="#fff" d="M1443.99 748.18C1442.65 762.292 1446.59 775.48 1455.25 786.484C1460.03 792.616 1470.53 791.524 1475.57 786.484C1481.62 780.436 1480.36 772.288 1475.57 766.156C1470.79 760.024 1467.09 753.388 1465.66 745.24C1464.74 739.864 1458.44 736.588 1453.48 737.344C1447.85 738.184 1444.49 742.552 1443.99 748.18Z" />
  <path fill="transparent" d="M1497.16 909.711C1495.73 918.363 1498.34 927.687 1504.05 934.323L1497.16 909.711Z" />
  <path fill="#fff" d="M1488.43 900.892C1482.29 907.696 1482.46 917.188 1483.97 925.756C1485.57 934.576 1490.53 940.204 1497.75 945.16C1502.29 948.268 1509.26 946.924 1513.04 943.144C1517.32 938.86 1517.24 933.064 1514.97 927.856C1515.39 928.948 1514.8 926.848 1514.72 926.764C1514.47 925.756 1514.38 924.748 1514.05 923.824C1513.54 922.144 1512.62 920.464 1511.86 918.952C1510.94 917.02 1511.61 918.616 1511.19 917.44C1510.85 916.432 1510.6 915.508 1510.35 914.5C1509.85 912.148 1510.35 916.012 1510.18 913.576C1509.93 909.88 1509.43 906.856 1507.75 903.496C1504.47 896.44 1493.55 895.264 1488.43 900.892Z" />
  <path fill="transparent" d="M1493.72 1060.66C1490.19 1069.98 1486.66 1079.39 1483.22 1088.72L1493.72 1060.66Z" />
  <path fill="#fff" d="M1476.83 1056.04C1474.65 1061.33 1472.55 1066.62 1470.37 1072C1469.27 1074.6 1467.93 1077.29 1467.26 1079.98C1466.08 1084.52 1467.01 1088.63 1468.01 1093C1469.95 1102.16 1483.13 1108.37 1491.11 1102.41C1494.47 1099.89 1498.09 1097.62 1500.27 1093.92C1502.29 1090.56 1503.38 1086.28 1504.64 1082.58C1506.65 1076.87 1508.59 1071.16 1510.6 1065.36C1513.63 1056.71 1507.16 1045.88 1498.42 1043.86C1488.26 1041.51 1480.53 1046.88 1476.83 1056.04Z" />
  <path fill="transparent" d="M1342.69 1194.14C1336.81 1197.66 1331.01 1201.19 1325.13 1204.64L1342.69 1194.14Z" />
  <path fill="#fff" d="M1332.52 1176.75C1327.73 1179.6 1322.86 1182.38 1318.41 1185.74C1314.13 1189.01 1310.68 1192.46 1309 1197.83C1307.57 1202.37 1307.91 1209 1310.6 1213.12C1313.29 1217.24 1317.4 1220.26 1322.11 1221.6C1328.24 1223.45 1333.53 1221.6 1339.16 1219.17C1343.95 1217.07 1348.4 1214.13 1352.85 1211.44C1361.92 1205.98 1366.04 1193.13 1360.07 1183.89C1354.28 1174.9 1342.18 1170.95 1332.52 1176.75Z" />
  <path fill="transparent" d="M1167.13 1264.28C1160.07 1268.98 1153.1 1273.6 1146.04 1278.3L1167.13 1264.28Z" />
  <path fill="#fff" d="M1158.73 1249.91C1154.36 1252.94 1149.99 1255.79 1145.62 1258.9C1142.6 1261 1139.74 1263.18 1137.47 1266.04C1134.53 1269.9 1133.78 1273.6 1133.19 1278.3C1132.43 1283.76 1137.73 1289.31 1142.6 1290.65C1155.2 1294.18 1165.53 1285.02 1175.44 1278.56C1182.75 1273.85 1186.45 1263.6 1181.41 1255.79C1176.87 1248.74 1166.37 1244.7 1158.73 1249.91Z" />
  <path fill="transparent" d="M974.01 1334.5C964.686 1338.03 955.278 1341.56 945.954 1345L974.01 1334.5Z" />
  <path fill="#fff" d="M970.146 1320.39C959.478 1324.25 949.146 1327.95 939.15 1333.32C925.29 1340.8 935.034 1361.3 949.566 1358.02C959.478 1355.75 968.466 1352.22 977.958 1348.53C985.35 1345.67 990.39 1338.7 988.206 1330.55C986.106 1323.41 977.538 1317.7 970.146 1320.39Z" />
  <path fill="transparent" d="M791.395 1394.48C780.055 1394.56 768.799 1397.84 759.223 1403.8L791.395 1394.48Z" />
  <path fill="#fff" d="M791.395 1380.53C776.695 1380.53 760.566 1383.72 749.982 1394.56C740.994 1403.72 749.982 1420.1 762.666 1416.4C772.41 1413.54 781.063 1408.92 791.395 1408.42C809.287 1407.58 809.539 1380.45 791.395 1380.53Z" />
  <path fill="transparent" d="M130.566 913.071C56.1416 966.999 9.68963 1088.63 38.7536 1183.22C67.8176 1277.88 172.23 1348.28 268.242 1323.92C294.03 1317.36 318.054 1304.76 339.474 1289.06C401.382 1243.53 442.038 1168.77 441.87 1091.99C441.702 1015.13 398.862 938.775 331.158 902.487C263.454 866.199 173.406 874.011 115.698 924.747" />
  <path fill="#fff" d="M126.87 906.687C-23.5741 1020 -18.87 1289.22 186.846 1337.78C285.798 1361.13 381.474 1294.94 426.75 1209.76C473.538 1121.64 464.466 1012.53 398.19 936.675C326.034 854.103 187.938 835.455 108.306 917.271C100.242 925.587 110.742 940.371 120.99 933.735C218.262 871.239 343.674 888.879 401.55 995.055C457.662 1097.87 412.554 1227.65 315.618 1287.63C220.614 1346.43 102.09 1296.53 57.5699 1198.34C15.0659 1104.59 57.5699 979.851 135.858 918.279C142.326 913.155 133.59 901.647 126.87 906.687Z" />
  <path fill="#fff" d="M235.566 971.367C196.254 980.103 127.206 1020.93 146.778 1071.41C156.858 1097.28 187.854 1100.48 211.71 1105.35C221.538 1107.36 231.618 1108.62 241.362 1110.89C266.646 1116.69 276.222 1114.5 276.726 1142.81C277.146 1166.16 277.65 1166.08 257.742 1173.47C240.606 1179.86 226.662 1181.96 209.526 1173.81C185.67 1162.38 168.366 1193.3 189.114 1208.75C235.566 1243.44 337.29 1203.12 332.502 1139.45C330.318 1109.97 305.706 1087.88 279.414 1078.47C254.13 1069.4 222.713 1073.26 198.689 1061.92C155.681 1041.76 216.33 998.751 240.354 989.007C251.106 984.723 247.326 968.763 235.566 971.367Z" />
  <path fill="#fff" d="M165.593 969.771C182.477 1020.76 198.353 1072.5 213.053 1124.16C226.073 1169.78 232.625 1227.48 259.337 1267.05C267.233 1278.72 283.697 1273.77 284.957 1260.08C289.325 1210.43 262.361 1153.23 245.561 1107.2C227.501 1057.47 207.005 1009.59 184.745 961.623C179.705 950.955 161.813 958.599 165.593 969.771Z" />
  <path fill="transparent" d="M1390.23 1222.02C1352.85 1305.94 1373.51 1434.46 1446.01 1501.83C1518.5 1569.2 1644.25 1577.93 1715.06 1508.72C1734.13 1490.15 1748.57 1467.22 1759.24 1442.86C1790.07 1372.47 1787.8 1287.38 1749.16 1221.02C1710.52 1154.57 1635.17 1109.88 1558.4 1112.4C1481.62 1114.92 1407.53 1166.75 1383.01 1239.58" />
  <path fill="#fff" d="M1383.84 1218.24C1311.27 1389.02 1441.64 1611.45 1640.97 1564.32C1742.27 1540.38 1796.2 1435.55 1795.28 1337.19C1794.35 1235.04 1731.35 1141.72 1633.83 1108.46C1530.01 1073.01 1401.07 1126.01 1373.09 1236.72C1370.24 1247.9 1386.62 1255.71 1392.24 1244.79C1445.08 1142.06 1562.51 1094.43 1665.75 1157.18C1769.49 1220.26 1794.19 1364.15 1731.44 1465.04C1672.05 1560.54 1535.21 1565.75 1454.66 1493.26C1383.51 1429.25 1362.51 1311.15 1397.37 1223.96C1400.39 1216.23 1387.12 1210.6 1383.84 1218.24Z" />
  <path fill="#fff" d="M1510.26 1219.84C1480.7 1246.97 1435.84 1329.96 1491.28 1356.26C1514.3 1367.18 1544.54 1352.06 1566.38 1344.41C1577.04 1340.72 1587.71 1336.01 1598.8 1333.32C1606.19 1332.15 1613.5 1330.89 1620.89 1329.71C1629.38 1338.45 1637.86 1347.18 1646.34 1355.92C1651.13 1380.36 1606.7 1406.82 1588.97 1408.17C1562.6 1410.18 1563.35 1445.63 1588.97 1448.66C1647.52 1455.54 1715.81 1366.76 1676.67 1314.68C1655.92 1287.12 1618.46 1285.44 1587.96 1294.01C1567.8 1299.72 1547.98 1312.24 1527.23 1315.6C1507.58 1318.79 1498 1318.62 1499.09 1293.76C1500.02 1271.16 1509.43 1250.5 1523.2 1232.86C1530.34 1223.7 1519.25 1211.69 1510.26 1219.84Z" />
  <path fill="#fff" d="M1448.78 1253.52C1488.93 1289.22 1528.49 1326.02 1567.13 1363.4 1601.24 1396.32 1635.76 1443.03 1678.69 1463.94 1691.45 1470.16 1703.38 1457.73 1697.5 1445.13 1676.42 1400.02 1624.51 1364.07 1586.96 1332.65 1546.47 1298.63 1504.72 1267.38 1461.46 1237.06 1451.8 1230.26 1439.87 1245.63 1448.78 1253.52zM431.707 1139.96C420.703 1195.14 398.695 1253.52 399.451 1310.14 399.535 1316.44 409.363 1320.22 412.219 1313.58 434.815 1261.67 436.327 1199.01 445.315 1143.74 446.827 1134.83 433.471 1130.88 431.707 1139.96zM20.6091 1115.68C12.1251 1152.98 1.62498 1192.37.532977 1230.76.280977 1238.91 13.0492 1240.84 14.8972 1232.69 23.2132 1195.4 25.3971 1156.5 32.1171 1118.79 33.4611 1111.4 22.2891 1108.04 20.6091 1115.68zM15.0663 1282.08C77.9823 1402.29 261.27 1472.85 369.042 1363.73 379.038 1353.65 366.438 1338.45 354.258 1344.58 294.114 1374.99 238.003 1400.02 168.619 1385.91 105.787 1373.14 53.8745 1332.99 21.5345 1278.3 19.0985 1274.1 12.7983 1277.8 15.0663 1282.08zM392.309 1348.86C397.685 1342.56 404.909 1336.35 404.657 1327.36 404.573 1323.33 401.381 1320.14 397.349 1320.05 388.445 1319.88 382.314 1327.11 376.098 1332.57 371.394 1336.68 371.898 1344.66 376.098 1348.86 380.13 1352.98 388.277 1353.65 392.309 1348.86zM1368.56 1337.44C1364.69 1381.2 1360.66 1430.01 1370.74 1473.27 1372 1478.56 1378.89 1476.63 1379.48 1472.09 1385.1 1428.41 1379.98 1381.46 1378.3 1337.44 1378.05 1331.14 1369.06 1331.31 1368.56 1337.44zM1388.21 1505.94C1461.04 1626.4 1615.85 1662.94 1734.04 1585.32 1744.46 1578.52 1734.96 1561.89 1724.21 1568.52 1611.48 1637.91 1470.87 1611.2 1394.26 1502.42 1391.74 1498.72 1385.78 1502 1388.21 1505.94zM1758.99 1554.92C1764.45 1546.35 1769.83 1537.7 1775.29 1529.13 1779.65 1522.16 1787.47 1514.34 1787.13 1505.86 1787.05 1503.09 1784.19 1500.23 1781.25 1501.41 1772.93 1504.52 1769.15 1513.76 1764.28 1520.73 1758.07 1529.55 1751.85 1538.28 1745.63 1547.1 1739.92 1555.17 1753.61 1563.4 1758.99 1554.92z" />
</svg>