<svg xmlns="http://www.w3.org/2000/svg" fill="none" viewBox="0 0 1518 1842"><path fill="#000" d="M163.944 203.615C218.376 646.211 266.172 1089.73 321.528 1532.24C323.712 1549.8 351.6 1550.05 349.416 1532.24C295.488 1089.4 242.316 646.379 187.38 203.615C185.616 188.831 162.096 188.663 163.944 203.615Z"/><path fill="#000" d="M164.616 202.692C294.732 158.004 431.988 125.999 566.724 98.5315C634.68 84.6715 702.804 72.0715 771.432 61.8235C839.472 51.5755 909.444 47.7956 976.392 31.4155C993.864 27.1315 989.328 1.76351 972.276 0.923506C906.924 -2.01649 840.9 10.3313 776.556 20.6633C705.576 32.0873 634.932 45.4437 564.96 61.9917C426.36 94.6677 294.396 140.279 160.668 188.243C151.596 191.351 155.46 205.8 164.616 202.692Z"/><path fill="#000" d="M969.001 19.5711C1021.67 46.5351 1072.07 76.6072 1122.55 107.267C1172.95 137.843 1219.82 175.139 1271.06 203.867C1289.04 213.947 1310.54 188.748 1293.91 174.3C1204.37 96.9355 1084.84 46.5351 976.308 2.18308C966.396 -1.84892 959.509 14.6991 969.001 19.5711Z"/><path fill="#000" d="M1268.54 201.347C1311.89 396.815 1350.61 593.376 1384.8 790.692C1401.68 887.964 1416.97 985.571 1431.17 1083.26C1445.62 1182.64 1453.43 1285.62 1479.64 1382.64C1485.35 1403.81 1517.1 1399.19 1517.52 1377.52C1519.45 1280.16 1500.05 1181.29 1485.1 1085.28C1469.47 985.235 1451.5 885.443 1432.43 785.987C1394.29 586.907 1348.51 389.508 1296.27 193.704C1291.48 175.728 1264.51 183.287 1268.54 201.347Z"/><path fill="#000" d="M334.464 1557.19C534.804 1566.26 738.252 1545.85 936.996 1521.58 1035.36 1509.56 1133.05 1494.44 1230.24 1475.12 1277.45 1465.72 1324.57 1455.8 1371.19 1443.62 1417.73 1431.44 1468.13 1422.12 1508.2 1394.57 1523.99 1383.73 1518.61 1358.28 1498.28 1357.86 1454.02 1356.94 1411.85 1372.06 1369.01 1382.14 1322.3 1393.22 1275.52 1404.14 1228.56 1413.97 1129.52 1434.72 1029.65 1451.69 929.604 1466.47 731.952 1495.7 532.368 1506.46 334.548 1532.83 319.344 1534.85 318.336 1556.44 334.464 1557.19zM971.772 37.6318C985.464 126.168 1010.92 213.192 1025.28 301.896 1026.96 312.48 1039.81 317.688 1049.14 315.42 1134.06 295.008 1215.46 264.768 1293.32 225.204 1316.42 213.444 1296.01 178.5 1273 190.428 1198.4 228.984 1120.45 258.048 1038.89 278.124 1046.87 282.66 1054.76 287.112 1062.74 291.648 1047.96 204.036 1031.33 109.368 995.712 27.6358 989.328 12.8518 969.756 24.2759 971.772 37.6318zM443.58 500.135C563.112 478.799 683.148 460.403 803.604 445.535 860.472 438.563 917.424 432.263 974.46 426.719 1029.73 421.343 1086.77 420.503 1141.12 408.827 1156.4 405.551 1151.87 383.628 1137.59 382.704 1078.28 379.008 1017.13 389.003 958.164 395.135 898.44 401.267 838.8 408.323 779.244 416.051 664.164 431.087 549.504 449.231 435.348 470.063 415.692 473.843 424.092 503.579 443.58 500.135zM410.736 650.832C541.104 618.408 672.9 594.384 805.704 574.728 872.82 564.816 940.104 556.584 1007.56 550.116 1072.32 543.9 1140.86 543.648 1204.12 528.36 1223.02 523.824 1216.46 499.044 1199.92 497.028 1132.21 488.712 1058.96 500.388 991.596 508.2 928.512 515.424 865.512 524.16 802.848 534.24 668.112 555.996 534.804 587.664 403.092 623.028 385.116 627.816 392.676 655.284 410.736 650.832zM438.877 793.799C564.961 765.827 692.305 743.651 820.153 725.171 947.497 706.775 1077.36 701.987 1204.03 680.063 1223.1 676.787 1217.64 647.975 1199.58 647.471 1072.99 643.775 942.625 667.295 817.969 687.371 687.937 708.287 559.585 736.679 431.989 769.019 415.945 773.135 422.749 797.411 438.877 793.799zM472.308 942.732C598.896 920.724 725.736 899.808 852.744 880.32 914.82 870.744 976.812 860.496 1038.89 850.668 1101.38 840.672 1172.28 837.06 1230.91 812.784 1241.66 808.332 1239.98 794.052 1228.22 792.792 1168.67 786.156 1103.65 801.612 1044.52 809.928 979.584 819.084 914.652 828.66 849.972 839.58 720.78 861.42 591.756 884.604 462.984 909.048 440.808 913.164 450.384 946.596 472.308 942.732zM477.348 1084.52C606.288 1067.05 735.648 1052.27 864.588 1034.29 927.588 1025.56 990.503 1015.73 1053.34 1005.98 1111.88 996.911 1181.52 995.063 1235.53 970.535 1249.9 963.983 1240.82 944.915 1228.31 943.739 1169.17 938.195 1101.72 959.699 1043.26 969.359 980.592 979.775 917.844 989.603 855.18 999.935 727.248 1021.1 599.4 1043.2 470.88 1060.58 455.004 1062.77 461.724 1086.62 477.348 1084.52zM491.712 1309.31C754.548 1282.93 1014.02 1244.38 1270.39 1179.7 1289.04 1174.99 1281.06 1147.36 1262.5 1151.05 1005.79 1202.12 748.248 1253.11 489.192 1290.58 478.608 1292.17 480.96 1310.4 491.712 1309.31zM85.4883 391.608C145.548 811.86 184.608 1235.39 209.556 1659.08 211.488 1692.43 263.988 1692.43 261.552 1659.08 229.968 1232.11 176.88 807.743 109.428 384.971 106.824 369.179 83.2203 376.068 85.4883 391.608z"/><path fill="#000" d="M241.56 1705.7C441.732 1702.76 640.476 1683.19 838.632 1656.06C936.408 1642.62 1033.76 1627.16 1130.78 1608.94C1181.94 1599.28 1232.76 1588.61 1283.5 1577.02C1331.71 1566.01 1387.49 1561.73 1433.02 1543C1448.64 1536.61 1454.69 1514.94 1437.97 1505.2C1361.95 1460.93 1244.77 1502.09 1165.48 1518.8C1063.84 1540.22 961.692 1559.71 859.38 1577.69C654.42 1613.72 447.864 1639.93 241.56 1666.73C217.536 1669.84 215.688 1706.12 241.56 1705.7Z"/><path fill="#000" d="M1378.08 1421.95C1380.77 1440.68 1383.37 1459.5 1386.06 1478.23 1388.66 1496.38 1387.82 1514.18 1401.85 1527.37 1414.2 1538.96 1430.41 1532.41 1436.38 1518.22 1443.6 1501 1434.61 1483.1 1429.82 1466.14 1424.7 1448.08 1419.58 1429.93 1414.54 1411.87 1407.73 1387.85 1374.8 1398.6 1378.08 1421.95zM98.2565 400.596C132.277 402.528 162.264 396.564 195.36 389.004 217.032 384.048 207.709 352.044 186.289 355.992 153.277 362.04 123.876 368.508 93.7204 383.544 84.9844 387.828 89.8565 400.092 98.2565 400.596zM.144458 527.687C60.2045 947.939 99.2644 1371.47 124.212 1795.16 126.144 1828.51 178.644 1828.51 176.208 1795.16 144.624 1368.19 91.5365 943.823 24.0845 521.051 21.5645 505.259-2.03954 512.147.144458 527.687z"/><path fill="#000" d="M156.216 1841.78C356.388 1838.84 555.132 1819.27 753.288 1792.14C851.064 1778.78 948.42 1763.24 1045.44 1745.02C1096.6 1735.36 1147.42 1724.69 1198.15 1713.1C1246.37 1702.09 1302.14 1697.81 1347.67 1679.08C1363.3 1672.69 1369.34 1651.02 1352.63 1641.28C1276.61 1596.92 1159.43 1638.17 1080.13 1654.88C978.492 1676.3 876.348 1695.79 774.036 1713.77C569.076 1749.8 362.52 1776.01 156.216 1802.81C132.192 1805.92 130.344 1842.2 156.216 1841.78Z"/><path fill="#000" d="M1292.74 1558.03C1295.42 1576.76 1298.03 1595.58 1300.72 1614.31 1303.32 1632.46 1302.48 1650.26 1316.51 1663.45 1328.86 1675.04 1345.07 1668.49 1351.03 1654.3 1358.26 1637.08 1349.27 1619.18 1344.48 1602.22 1339.36 1584.16 1334.23 1566.01 1329.19 1547.95 1322.39 1523.93 1289.46 1534.68 1292.74 1558.03zM12.9966 536.675C47.0166 538.607 77.0046 532.643 110.101 525.083 131.773 520.127 122.448 488.123 101.028 492.071 68.0164 498.119 38.6165 504.588 8.46053 519.624-.359469 523.908 4.5966 536.171 12.9966 536.675z"/></svg>